<svg width="97" height="95" fill="none" xmlns="http://www.w3.org/2000/svg"><path d="M55 94a41 41 0 100-82 41 41 0 000 82z" fill="#02B241" stroke="#FFF7F7" stroke-width="2"/><g clip-path="url(#clip0)"><path d="M11.8 47.65l-9.9.65 3.88 27.3 11.64 3.9 21.36 2.6 11.64-.65 5.18-2.6 5.82 3.25 12.3-1.3 9.47-7.41 1.53-6.94-1.53-4.62-3.86-4.62 2.8-10.2-5.18-6.5-1.27-7.8-6.35-4.9-13.73.34-6.56 2.6 5.27-18.2-.65-8.45L49.78.85 41.37 5.4l-7.12 18.2-10.36 15.6-12.09 8.45z" fill="#fff"/><path d="M.87 48.5c6.78 3.29 15.5-1.14 20.77-5.44 6.85-5.57 10.96-13.6 14.44-21.52 1.76-4.01 3.25-8.21 5.35-12.06a15.8 15.8 0 013.55-4.7c1.05-.87 2.56-1.71 3.97-1.63 1.87.11 2.24 1.14 2.6 2.68 2.35 10.46-3.81 20.9-7.24 30.3-.56 1.52 1.02 1.53 1.84.28 5.56-8.52 9.05-19.02 7.71-29.28-.45-3.51-.86-6.29-4.9-6.16-3.7.11-6.24 2.51-8.22 5.4-2.77 4-4.68 8.41-6.6 12.86-2.01 4.67-4.16 9.34-6.97 13.6-2.86 4.34-6.47 8.17-10.96 10.85-4.89 2.9-9.59 3.2-15.06 3.84-.48.04-.8.74-.28.99z" fill="#1A1B22"/><path d="M49.11 31.8c6.03-2.2 15.2-5 21.37-1.88 8.22 4.16 2.29 14.19-2.34 18.42-4.72 4.33-11.55 9.07-18.28 8.96-1.96-.03-3.27-.3-2.1-3.92.3-.89 1.27-1.74 1.86-2.42a33.03 33.03 0 013.3-3.32 38.15 38.15 0 018.88-5.54c.95-.46.27-2.1-.73-1.73-6.05 2.25-13.62 7.4-16.06 13.67-.96 2.46-.19 4.92 2.35 5.92 2.98 1.18 6.84.07 9.7-.96 6.89-2.48 14.24-7.63 18.1-13.92 3.29-5.33 3.45-12.98-2.23-16.78-6.89-4.6-17.8-1.42-24.37 2.18-.7.4-.23 1.6.55 1.33z" fill="#1A1B22"/><path d="M73.81 40.91c2.05.88 4.17 1.73 5.5 3.62 1.62 2.32 1.01 5.34.17 7.87a28.33 28.33 0 01-8.14 12.2 22.75 22.75 0 01-13.9 5.71c-2.54.1-6.16.1-7.56-2.38-1.3-2.3-.32-5.37.64-7.59.33-.74-.62-1.72-1.24-.95-3.15 3.87-3.86 10.74 1.57 12.89 6.68 2.63 15.27-.15 20.73-4.23 5.56-4.15 10.22-11.03 11.14-17.99.65-4.83-3.23-11.24-8.85-9.56-.17.05-.25.33-.06.41z" fill="#1A1B22"/><path d="M78.51 57.96c2.9 2.55 4.85 5.38 4.43 9.44-.44 4.38-3.57 8.05-7.34 10.1-5.26 2.87-23.31 6.29-20.6-4.8.18-.75-.7-1.5-1.34-.88-3.54 3.45-.02 8.91 3.73 10.44 5.33 2.16 12.77.79 17.86-1.44 5.08-2.23 9.61-6.83 10.35-12.52.57-4.41-1.7-10.2-6.24-11.63-.7-.22-1.48.73-.85 1.29z" fill="#1A1B22"/><path d="M3.93 74.99c6.59 5.68 17.22 6.79 25.57 7.44 4.73.36 9.53.6 14.28.55 4.05-.05 8.52-.48 11.89-2.96 1.16-.85.18-2.58-1.14-1.95-7.6 3.65-16.86 2.44-25.03 1.8a96 96 0 01-13.04-1.79c-4.18-.91-8.15-2.52-12.3-3.47-.22-.05-.41.22-.23.38z" fill="#1A1B22"/></g><defs><clipPath id="clip0"><path fill="#fff" transform="translate(.6 .2)" d="M0 0h88v83.2H0z"/></clipPath></defs></svg>