<svg xmlns="http://www.w3.org/2000/svg" xmlns:xlink="http://www.w3.org/1999/xlink" width="91.26429999999999" height="37.1524"><path fill="#fff" d="M12.46 29.42L16.29 29.42L16.29 7.39L10.71 7.39C5.10 7.39 2.16 10.27 2.16 14.52C2.16 17.91 3.77 19.91 6.66 21.97L1.65 29.42L5.80 29.42L11.38 21.08L9.45 19.78C7.10 18.20 5.96 16.96 5.96 14.30C5.96 11.95 7.61 10.37 10.75 10.37L12.46 10.37ZM86.41 29.73C88.16 29.73 89.39 29.42 90.31 28.75L90.31 25.68C89.36 26.34 88.22 26.75 86.64 26.75C83.94 26.75 82.83 24.66 82.83 21.37C82.83 17.91 84.20 16.14 86.67 16.14C88.13 16.14 89.55 16.64 90.31 17.12L90.31 13.92C89.52 13.47 88.13 13.16 86.26 13.16C81.44 13.16 78.93 16.61 78.93 21.46C78.93 26.79 81.37 29.73 86.41 29.73ZM62.83 28.34L62.83 25.26C61.66 26.06 59.69 26.75 57.85 26.75C55.09 26.75 54.05 25.46 53.89 22.79L62.99 22.79L62.99 20.80C62.99 15.25 60.55 13.16 56.77 13.16C52.18 13.16 49.99 16.67 49.99 21.49C49.99 27.04 52.72 29.73 57.54 29.73C59.94 29.73 61.72 29.10 62.83 28.34ZM74.88 29.42L79.15 29.42L73.10 20.95L78.43 13.47L74.62 13.47L69.30 20.95L69.30 13.47L65.52 13.47L65.52 29.42L69.30 29.42L69.30 21.71ZM49.07 26.44L47.39 26.44L47.39 13.47L36.39 13.47L36.39 14.84C36.39 18.73 36.14 23.77 34.81 26.44L33.63 26.44L33.63 33.06L37.12 33.06L37.12 29.42L45.58 29.42L45.58 33.06L49.07 33.06ZM28.28 13.47L28.28 19.78L23.24 19.78L23.24 13.47L19.46 13.47L19.46 29.42L23.24 29.42L23.24 22.76L28.28 22.76L28.28 29.42L32.05 29.42L32.05 13.47ZM56.71 16.14C58.58 16.14 59.15 17.69 59.15 19.69L59.15 20.00L53.89 20.00C53.99 17.47 54.90 16.14 56.71 16.14ZM43.62 26.44L38.29 26.44C39.34 24.03 39.63 19.69 39.63 16.93L39.63 16.45L43.62 16.45Z"/></svg>